<svg xmlns="http://www.w3.org/2000/svg" width="512" height="512"><path d="M337.547 199.478a4.75 4.75 0 0 0-5.501-3.851l-17.05 3.005a63.953 63.953 0 0 0-7.764-13.418l11.139-13.272a4.763 4.763 0 0 0 1.094-3.466 4.758 4.758 0 0 0-1.68-3.225l-14.913-12.514a4.75 4.75 0 0 0-6.691.585l-11.129 13.265a63.661 63.661 0 0 0-14.572-5.306V143.97a4.749 4.749 0 0 0-4.748-4.751h-19.466a4.75 4.75 0 0 0-4.748 4.751v17.311a63.631 63.631 0 0 0-14.572 5.306l-11.128-13.265a4.75 4.75 0 0 0-6.69-.584l-14.913 12.513a4.758 4.758 0 0 0-1.68 3.225 4.759 4.759 0 0 0 1.094 3.466l11.138 13.272a64 64 0 0 0-7.763 13.418l-17.05-3.005a4.753 4.753 0 0 0-5.501 3.851l-3.381 19.173a4.746 4.746 0 0 0 3.852 5.5l17.063 3.011a63.83 63.83 0 0 0 2.68 15.268l-14.994 8.657a4.748 4.748 0 0 0-1.738 6.486l9.733 16.86a4.743 4.743 0 0 0 2.885 2.212 4.739 4.739 0 0 0 3.602-.474l15.009-8.665a64.568 64.568 0 0 0 11.868 9.967l-5.926 16.277a4.748 4.748 0 0 0 2.838 6.087l18.294 6.658a4.747 4.747 0 0 0 6.086-2.838l5.925-16.279c2.54.306 5.127.468 7.75.468s5.21-.162 7.75-.468l5.926 16.279a4.746 4.746 0 0 0 6.085 2.838l18.294-6.658a4.752 4.752 0 0 0 2.838-6.087l-5.926-16.277a64.529 64.529 0 0 0 11.868-9.967l15.009 8.664a4.731 4.731 0 0 0 3.602.475 4.744 4.744 0 0 0 2.884-2.212l9.734-16.86a4.75 4.75 0 0 0-1.738-6.486l-14.994-8.657a63.92 63.92 0 0 0 2.68-15.268l17.063-3.011a4.747 4.747 0 0 0 3.852-5.5l-3.379-19.173zM256 249.117c-14.424 0-26.117-11.692-26.117-26.116s11.693-26.116 26.117-26.116 26.117 11.692 26.117 26.116-11.693 26.116-26.117 26.116z"/><path d="M422.684 80.971H89.316C70.945 80.971 56 95.917 56 114.288V331.56c0 18.371 14.945 33.317 33.316 33.317h107.412l-20.387 44.956a15 15 0 0 0 13.66 21.195H322.017c8.285 0 15-6.716 15-15 0-2.494-.607-4.847-1.686-6.916l-20.061-44.235h107.412c18.371 0 33.316-14.946 33.316-33.317V114.288c.002-18.371-14.943-33.317-33.314-33.317zM426 331.561a3.32 3.32 0 0 1-3.316 3.317H89.316A3.32 3.32 0 0 1 86 331.561V114.288a3.32 3.32 0 0 1 3.316-3.317h333.367a3.32 3.32 0 0 1 3.316 3.317v217.273z"/></svg>