<svg height="512pt" viewBox="-51 0 512 512" width="512pt" xmlns="http://www.w3.org/2000/svg"><path d="M205.117 0C92.016 0 0 92.016 0 205.117v5.668c0 57.2 32.793 123.856 97.473 198.113 46.886 53.832 93.12 91.368 95.066 92.942L205.117 512l12.574-10.16c1.946-1.574 48.176-39.11 95.067-92.942 64.68-74.257 97.472-140.914 97.472-198.113v-5.668C410.23 92.016 318.215 0 205.117 0zm165.09 210.785c0 96.664-124.55 213.68-165.09 249.203-40.554-35.535-165.094-152.543-165.094-249.203v-5.668c0-91.035 74.059-165.094 165.094-165.094 91.031 0 165.09 74.059 165.09 165.094zM185.105 196.11h40.02v40.024h-40.02zm20.52-114.136l-121.5 110.84 26.938 29.527v36.805c0 27.585 22.44 50.03 50.027 50.03h90.05c27.587 0 50.028-22.445 50.028-50.03v-37.887l25.953-28.445zm45.516 187.18H161.09c-5.516 0-10.004-4.489-10.004-10.008v-73.243l54.539-49.754 55.523 50.653v72.344c0 5.52-4.488 10.007-10.007 10.007zm0 0"/></svg>